# Blender v3.1.2 OBJ File: ''
# www.blender.org
o Cube
v 3.626848 0.846490 -3.453192
v 2.351321 -0.941483 -0.559451
v 5.250093 3.203333 -2.250524
v 2.141133 -0.850498 1.044558
v 1.968160 -1.044163 -0.443285
v 1.428783 -1.217298 -0.576829
v -1.223239 2.959575 6.936317
v 1.434709 -1.024409 1.221493
v 2.849322 4.390242 -4.622474
v -3.398500 4.470612 4.988617
v 1.812351 1.203503 -5.967072
v -0.065250 0.939395 -2.550013
v 0.573142 -1.435778 -1.258756
v 2.220305 -0.975290 -3.913359
v -2.097286 -1.194572 -3.229889
v 0.337403 -1.011128 -6.602090
v -4.482963 1.108762 7.161759
v -0.013806 -1.338258 -0.027565
v -7.253506 2.258569 5.607799
v -3.237602 -1.352417 -1.935771
v 4.858056 8.056312 -1.769809
v -0.416930 9.469379 8.572027
v 3.301715 9.504462 -3.690168
v -3.281874 10.690746 5.946080
v 5.279761 3.818002 -3.950826
v 3.138437 5.161579 -6.410230
v 5.271221 8.157005 -3.368381
v 3.752516 10.028475 -5.509850
v -2.575770 4.446629 8.745135
v 0.277889 2.997393 10.603151
v -2.031408 9.741213 9.710520
v 1.349586 9.059920 13.110198
v 3.986698 9.255222 -0.693827
v 1.618449 9.670897 4.585528
v 2.818820 7.503695 4.511515
v 4.468064 8.230330 0.120069
v 2.316744 15.283609 -3.730367
v -5.108366 15.452651 4.792628
v 0.108230 12.095944 8.843769
v 5.537810 11.851392 0.200772
v -6.036193 -3.739390 8.260721
v -1.567035 -6.186410 1.071397
v -8.806736 -2.589584 6.706760
v -4.790832 -6.200569 -0.836810
v 0.797385 -7.345820 -1.738337
v 2.444547 -6.885333 -4.392941
v -1.873043 -7.104614 -3.709470
v 0.561645 -6.921171 -7.081671
v 9.337980 0.307953 -9.542545
v 7.196656 1.651529 -12.001948
v 9.329440 4.646955 -8.960100
v 7.810736 6.518425 -11.101569
v -3.698581 6.553550 17.745399
v -0.844923 5.104314 19.603416
v -3.154220 11.848133 18.710785
v 0.226774 11.166842 22.110462
vt 0.784698 0.910732
vt 0.822564 0.980514
vt 0.772448 0.999379
vt 0.599630 0.100535
vt 0.695827 0.257084
vt 0.598478 0.117578
vt 0.197434 0.620044
vt 0.215160 0.655775
vt 0.202927 0.660940
vt 0.185960 0.450856
vt 0.149144 0.469489
vt 0.144751 0.452981
vt 0.918783 0.251712
vt 0.949396 0.133736
vt 0.949396 0.272433
vt 0.196192 0.450856
vt 0.196192 0.553299
vt 0.187202 0.470904
vt 0.000621 0.726806
vt 0.085363 0.802137
vt 0.004137 0.815895
vt 0.143093 0.521326
vt 0.024756 0.272811
vt 0.143093 0.259785
vt 0.855035 0.173178
vt 0.787138 0.239082
vt 0.782649 0.153524
vt 0.440110 0.884815
vt 0.506371 0.941140
vt 0.425799 0.954176
vt 0.291181 0.931805
vt 0.216403 0.800577
vt 0.291181 0.796428
vt 0.941210 0.947466
vt 0.994960 0.904293
vt 0.994960 0.979186
vt 0.575455 0.871322
vt 0.513428 0.953565
vt 0.507614 0.858758
vt 0.941210 0.806478
vt 0.995277 0.839542
vt 0.983069 0.875458
vt 0.171073 0.895247
vt 0.086605 0.789473
vt 0.171073 0.776423
vt 0.857232 0.750043
vt 0.815468 0.565992
vt 0.857232 0.545123
vt 0.424556 0.949139
vt 0.356983 0.911093
vt 0.424556 0.858758
vt 0.771205 0.570024
vt 0.682654 0.756515
vt 0.671898 0.545123
vt 0.747427 0.377875
vt 0.764330 0.543881
vt 0.747226 0.503120
vt 0.995735 0.605362
vt 0.940176 0.632185
vt 0.951044 0.545123
vt 0.497256 0.019353
vt 0.386252 0.264103
vt 0.344160 0.000621
vt 0.212329 0.776423
vt 0.172316 0.878000
vt 0.174629 0.778145
vt 0.662989 0.607422
vt 0.579305 0.729701
vt 0.579305 0.552894
vt 0.342187 0.871643
vt 0.298531 0.763124
vt 0.342187 0.752592
vt 0.856277 0.184665
vt 0.888635 0.233990
vt 0.862655 0.266036
vt 0.298091 0.943483
vt 0.331135 0.899596
vt 0.331135 0.973153
vt 0.344160 0.324182
vt 0.458222 0.489500
vt 0.344160 0.536623
vt 0.342409 0.668600
vt 0.298091 0.658314
vt 0.342409 0.557103
vt 0.875099 0.431296
vt 0.788269 0.302215
vt 0.875099 0.277058
vt 0.865202 0.763617
vt 0.778409 0.894381
vt 0.772448 0.771112
vt 0.342917 0.258543
vt 0.204188 0.018801
vt 0.342917 0.000621
vt 0.728884 0.047431
vt 0.716414 0.007550
vt 0.781406 0.000621
vt 0.215160 0.291075
vt 0.150525 0.322691
vt 0.209406 0.259785
vt 0.595622 0.203040
vt 0.498499 0.137820
vt 0.597236 0.000621
vt 0.344160 0.651735
vt 0.446109 0.537866
vt 0.446109 0.770803
vt 0.000621 0.106956
vt 0.172868 0.258542
vt 0.015501 0.238469
vt 0.354762 0.853530
vt 0.555762 0.772045
vt 0.555762 0.857515
vt 0.459465 0.505004
vt 0.578037 0.698331
vt 0.459465 0.706044
vt 0.966862 0.119444
vt 0.890900 0.013671
vt 0.966862 0.000621
vt 0.578062 0.488723
vt 0.459465 0.284384
vt 0.578062 0.277058
vt 0.881491 0.489689
vt 0.952254 0.419232
vt 0.952254 0.514218
vt 0.671898 0.911229
vt 0.766792 0.780001
vt 0.766792 0.915377
vt 0.579305 0.789620
vt 0.655116 0.920848
vt 0.579305 0.924997
vt 0.948268 0.281207
vt 0.876342 0.412435
vt 0.876342 0.277058
vt 0.079858 0.831151
vt 0.012079 0.916360
vt 0.000621 0.817137
vt 0.939968 0.765848
vt 0.866444 0.940424
vt 0.866444 0.763617
vt 0.086605 0.598374
vt 0.184632 0.717403
vt 0.086605 0.775181
vt 0.938934 0.546143
vt 0.858474 0.721930
vt 0.858474 0.545123
vt 0.889657 0.000621
vt 0.782649 0.124768
vt 0.805271 0.003446
vt 0.216403 0.769544
vt 0.296848 0.582744
vt 0.296848 0.795186
vt 0.216403 0.472226
vt 0.342917 0.343419
vt 0.342917 0.555861
vt 0.579305 0.339210
vt 0.670655 0.489500
vt 0.579305 0.551652
vt 0.822564 0.908467
vt 0.695827 0.000621
vt 0.215160 0.450856
vt 0.185960 0.472827
vt 0.890900 0.173660
vt 0.193461 0.463850
vt 0.085363 0.540596
vt 0.000621 0.539354
vt 0.855035 0.275560
vt 0.506371 0.858758
vt 0.216403 0.935954
vt 0.949067 0.876700
vt 0.575455 0.960479
vt 0.995277 0.763617
vt 0.086605 0.908296
vt 0.772448 0.762375
vt 0.344160 0.955985
vt 0.771205 0.774609
vt 0.671898 0.286774
vt 0.764330 0.277058
vt 0.698579 0.406361
vt 0.995735 0.695763
vt 0.497256 0.275816
vt 0.212329 0.888044
vt 0.662989 0.784229
vt 0.298091 0.876910
vt 0.888635 0.153524
vt 0.300079 0.878153
vt 0.458222 0.277058
vt 0.300091 0.751349
vt 0.765573 0.452167
vt 0.865202 0.907225
vt 0.174111 0.249788
vt 0.781406 0.268254
vt 0.705270 0.177659
vt 0.697069 0.047296
vt 0.209406 0.449613
vt 0.597236 0.259565
vt 0.360212 0.544632
vt 0.172868 0.000621
vt 0.344160 0.777188
vt 0.578037 0.497292
vt 0.890900 0.132494
vt 0.459465 0.496049
vt 0.876342 0.417827
vt 0.671898 0.775852
vt 0.655116 0.785471
vt 0.948268 0.416584
vt 0.079858 0.944939
vt 0.939968 0.942655
vt 0.184632 0.540596
vt 0.938934 0.722950
vt 0.889657 0.152281
vt 0.216403 0.557103
vt 0.216403 0.259785
vt 0.670655 0.277058
vn 0.7852 -0.6176 0.0448
vn 0.3310 -0.6949 0.6384
vn -0.2812 0.9543 -0.1014
vn 0.2618 -0.9597 0.1021
vn 0.8373 -0.5286 0.1397
vn 0.2674 -0.8680 -0.4184
vn -0.8035 0.4336 -0.4080
vn -0.8254 0.1711 -0.5380
vn -0.2783 0.5831 0.7632
vn 0.6762 -0.0928 -0.7308
vn 0.8162 0.0774 -0.5726
vn 0.7670 -0.3582 -0.5324
vn -0.5993 0.6964 -0.3948
vn -0.5421 0.2842 0.7908
vn 0.4806 -0.3374 -0.8094
vn 0.2332 -0.8089 0.5397
vn 0.3735 -0.6847 -0.6259
vn -0.4753 0.6679 -0.5727
vn -0.4709 -0.8820 -0.0160
vn -0.6446 -0.7522 0.1364
vn 0.8556 -0.2233 0.4669
vn 0.9682 -0.0314 0.2483
vn 0.7816 -0.0815 0.6184
vn -0.9877 0.1080 -0.1131
vn -0.1258 -0.9323 -0.3392
vn 0.4890 0.7985 0.3511
vn -0.9799 0.1285 -0.1523
vn 0.1791 0.9837 0.0191
vn 0.9253 -0.0195 -0.3786
vn -0.9454 0.0382 0.3237
vn 0.4352 0.8240 0.3628
vn 0.7503 0.6506 -0.1174
vn 0.7155 -0.1964 -0.6705
vn -0.6352 -0.7461 0.1997
vn 0.8467 -0.0021 0.5320
vn -0.8444 -0.4085 -0.3466
vn -0.1384 -0.9606 0.2409
vn 0.8198 -0.1366 0.5561
vn -0.3616 0.3148 0.8776
vn -0.8406 0.1514 -0.5200
vn 0.0476 -0.9987 -0.0200
vn -0.8111 0.0167 -0.5847
vn -0.5967 -0.0874 0.7977
vn 0.8505 -0.0104 0.5259
vn 0.7741 0.0857 -0.6272
vn 0.7200 0.6880 0.0907
vn -0.7224 0.2129 -0.6579
vn -0.5908 -0.8033 0.0755
vn -0.5749 -0.0892 0.8134
vn -0.5165 -0.8458 0.1336
vn 0.9544 -0.2413 0.1756
vn 0.3566 0.9186 -0.1705
vn 0.2700 -0.9629 0.0005
vn 0.8088 -0.1605 0.5657
vn -0.9343 -0.1972 -0.2970
vn 0.2837 -0.9546 0.0913
vn 0.8213 -0.5705 0.0095
vn -0.3631 0.8660 0.3439
vn -0.7828 0.3538 -0.5119
vn -0.8154 0.1030 -0.5697
vn -0.2041 0.5770 0.7908
vn 0.8097 -0.0159 -0.5867
vn 0.7128 -0.4058 -0.5721
vn -0.7281 0.5866 -0.3547
vn -0.5542 0.2777 0.7847
vn 0.4475 -0.7242 0.5247
vn -0.0303 -0.7422 -0.6695
vn -0.5587 0.6283 -0.5414
vn 0.2468 0.9533 0.1742
vn 0.8907 -0.0024 0.4546
vn -0.8151 -0.4385 -0.3787
vn -0.5580 -0.7954 0.2366
vn 0.8173 0.0090 0.5761
vn 0.9961 0.0760 0.0449
vn -0.9681 0.1581 -0.1943
vn -0.1009 -0.9075 -0.4079
vn 0.5331 0.8245 0.1897
vn 0.2670 0.9517 0.1514
vn 0.9314 -0.0142 -0.3638
vn -0.9768 -0.0146 0.2138
vn 0.3978 0.8895 0.2248
vn 0.2206 0.9749 0.0307
vn 0.2081 0.9780 0.0163
vn 0.8538 0.5041 0.1298
vn 0.6866 -0.1663 -0.7078
vn -0.8747 -0.4833 -0.0350
vn 0.9138 -0.2766 0.2974
vn -0.5770 -0.6537 -0.4897
vn -0.4587 -0.8716 0.1730
vn 0.0255 -0.9875 -0.1555
vn 0.8171 0.0035 -0.5764
vn -0.7158 -0.1550 0.6808
s off
f 5/1/1 14/2/1 1/3/1
f 4/4/2 7/5/2 8/6/2
f 8/7/3 5/8/3 6/9/3
f 6/10/4 4/11/4 8/12/4
f 2/13/5 3/14/5 4/15/5
f 6/16/6 1/17/6 2/18/6
f 12/19/7 9/20/7 11/21/7
f 10/22/8 23/23/8 9/24/8
f 10/25/9 17/26/9 7/27/9
f 1/28/10 9/29/10 3/30/10
f 16/31/11 46/32/11 48/33/11
f 11/34/12 14/35/12 16/36/12
f 12/37/13 16/38/13 15/39/13
f 12/40/14 13/41/14 5/42/14
f 20/43/15 42/44/15 44/45/15
f 7/46/16 18/47/16 5/48/16
f 12/49/17 18/50/17 20/51/17
f 10/52/18 20/53/18 19/54/18
f 34/55/19 21/56/19 36/57/19
f 7/58/20 29/59/20 10/60/20
f 7/61/21 21/62/21 22/63/21
f 21/64/22 25/65/22 27/66/22
f 25/67/23 51/68/23 27/69/23
f 23/70/24 26/71/24 9/72/24
f 9/73/25 25/74/25 3/75/25
f 23/76/26 27/77/26 28/78/26
f 31/79/27 53/80/27 55/81/27
f 22/82/28 31/83/28 32/84/28
f 22/85/29 30/86/29 7/87/29
f 24/88/30 29/89/30 31/90/30
f 38/91/31 40/92/31 37/93/31
f 33/94/32 21/95/32 23/96/32
f 33/97/33 40/98/33 36/99/33
f 34/100/34 39/101/34 38/102/34
f 35/103/35 40/104/35 39/105/35
f 34/106/36 37/107/36 33/108/36
f 41/109/37 44/110/37 42/111/37
f 17/112/38 42/113/38 18/114/38
f 17/115/39 43/116/39 41/117/39
f 20/118/40 43/119/40 19/120/40
f 46/121/41 47/122/41 48/123/41
f 16/124/42 47/125/42 15/126/42
f 13/127/43 47/128/43 45/129/43
f 13/130/44 46/131/44 14/132/44
f 50/133/45 51/134/45 49/135/45
f 27/136/46 52/137/46 28/138/46
f 26/139/47 52/140/47 50/141/47
f 26/142/48 49/143/48 25/144/48
f 54/145/49 55/146/49 53/147/49
f 30/148/50 53/149/50 29/150/50
f 32/151/51 54/152/51 30/153/51
f 32/154/52 55/155/52 56/156/52
f 5/1/53 13/157/53 14/2/53
f 4/4/54 3/158/54 7/5/54
f 8/7/55 7/159/55 5/8/55
f 6/10/56 2/160/56 4/11/56
f 2/13/57 1/161/57 3/14/57
f 6/16/58 5/162/58 1/17/58
f 12/19/59 10/163/59 9/20/59
f 10/22/60 24/164/60 23/23/60
f 10/25/61 19/165/61 17/26/61
f 1/28/62 11/166/62 9/29/62
f 16/31/11 14/167/11 46/32/11
f 11/34/63 1/168/63 14/35/63
f 12/37/64 11/169/64 16/38/64
f 12/40/65 15/170/65 13/41/65
f 20/43/15 18/171/15 42/44/15
f 7/46/66 17/172/66 18/47/66
f 12/49/67 5/173/67 18/50/67
f 10/52/68 12/174/68 20/53/68
f 24/175/69 22/176/69 34/55/69
f 22/176/70 21/56/70 34/55/70
f 35/177/71 34/55/71 36/57/71
f 7/58/72 30/178/72 29/59/72
f 7/61/73 3/179/73 21/62/73
f 21/64/74 3/180/74 25/65/74
f 25/67/23 49/181/23 51/68/23
f 23/70/75 28/182/75 26/71/75
f 9/73/76 26/183/76 25/74/76
f 23/76/77 21/184/77 27/77/77
f 31/79/27 29/185/27 53/80/27
f 22/82/78 24/186/78 31/83/78
f 22/85/79 32/187/79 30/86/79
f 24/88/80 10/188/80 29/89/80
f 38/91/81 39/189/81 40/92/81
f 23/96/82 24/190/82 33/94/82
f 24/190/83 34/191/83 33/94/83
f 33/94/84 36/192/84 21/95/84
f 33/97/85 37/193/85 40/98/85
f 34/100/86 35/194/86 39/101/86
f 35/103/87 36/195/87 40/104/87
f 34/106/88 38/196/88 37/107/88
f 41/109/89 43/197/89 44/110/89
f 17/112/38 41/198/38 42/113/38
f 17/115/39 19/199/39 43/116/39
f 20/118/40 44/200/40 43/119/40
f 46/121/90 45/201/90 47/122/90
f 16/124/42 48/202/42 47/125/42
f 13/127/43 15/203/43 47/128/43
f 13/130/44 45/204/44 46/131/44
f 50/133/91 52/205/91 51/134/91
f 27/136/46 51/206/46 52/137/46
f 26/139/47 28/207/47 52/140/47
f 26/142/48 50/208/48 49/143/48
f 54/145/92 56/209/92 55/146/92
f 30/148/50 54/210/50 53/149/50
f 32/151/51 56/211/51 54/152/51
f 32/154/52 31/212/52 55/155/52
